<?xml version="1.0" standalone="no"?>
<!DOCTYPE svg PUBLIC "-//W3C//DTD SVG 20010904//EN"
 "http://www.w3.org/TR/2001/REC-SVG-20010904/DTD/svg10.dtd">
<svg version="1.0" xmlns="http://www.w3.org/2000/svg"
 width="798.000000pt" height="362.000000pt" viewBox="0 0 798.000000 362.000000"
 preserveAspectRatio="xMidYMid meet">
<metadata>
Created by potrace 1.15, written by Peter Selinger 2001-2017
</metadata>
<g transform="translate(0.000000,362.000000) scale(0.100000,-0.100000)"
fill="#000000" stroke="none">
<path d="M1304 2833 l-401 -398 -1 -1012 -2 -1013 2805 0 2805 0 0 390 0 390
405 0 405 0 0 1020 0 1020 -2807 0 -2807 0 -402 -397z m5511 -53 l-340 -340
-2327 0 -2328 0 0 340 0 340 2667 0 2668 0 -340 -340z m-5105 -30 l0 -310
-317 0 -318 0 310 310 c170 171 313 310 317 310 5 0 8 -139 8 -310z m5500
-595 l0 -855 -350 0 -350 0 0 507 0 508 347 347 c192 192 349 348 350 348 2 0
3 -385 3 -855z m-812 -732 l2 -903 -2695 0 -2695 0 0 905 0 905 2693 -2 2692
-3 3 -902z"/>
<path d="M5124 1911 c-2 -2 -4 -195 -4 -428 l0 -423 85 0 85 0 0 30 c0 31 14
41 23 16 3 -7 26 -23 51 -35 55 -27 155 -30 212 -6 58 24 121 91 144 153 25
65 27 179 4 244 -51 150 -221 221 -358 149 l-56 -30 -2 166 -3 165 -88 1 c-49
1 -91 0 -93 -2z m384 -456 c87 -73 59 -214 -49 -246 -98 -30 -189 91 -144 191
35 78 133 106 193 55z"/>
<path d="M2221 1874 c-26 -22 -31 -33 -31 -71 0 -36 6 -50 29 -74 66 -65 181
-19 181 73 0 88 -108 132 -179 72z"/>
<path d="M1460 1461 l0 -401 185 0 c233 0 309 15 373 74 82 74 84 238 3 304
-9 7 -31 20 -49 28 l-34 15 42 30 c50 36 70 80 70 150 0 77 -34 130 -107 166
-57 28 -61 28 -270 31 l-213 3 0 -400z m381 210 c26 -31 24 -67 -5 -96 -17
-17 -39 -25 -89 -30 -96 -10 -97 -9 -97 81 l0 76 86 -3 c76 -4 88 -7 105 -28z
m6 -294 c59 -31 49 -106 -17 -139 -24 -12 -59 -18 -107 -18 l-73 0 0 91 0 92
83 -5 c47 -3 97 -13 114 -21z"/>
<path d="M3580 1460 l0 -400 95 0 95 0 2 163 3 162 153 3 152 3 0 -166 0 -165
100 0 100 0 0 400 0 400 -100 0 -100 0 0 -150 0 -151 -152 3 -153 3 -2 145 -1
145 -96 3 -96 3 0 -401z"/>
<path d="M2795 1621 c-22 -10 -49 -28 -60 -41 l-20 -22 -5 33 -5 34 -85 0 -85
0 -3 -282 -2 -283 94 0 95 0 3 179 c3 164 5 182 24 208 15 19 31 29 55 31 75
6 88 -34 89 -261 l0 -158 93 3 92 3 5 182 c5 175 6 182 29 207 34 36 82 35
110 0 20 -25 21 -40 21 -210 l0 -184 95 0 95 0 0 204 c0 218 -8 266 -53 315
-72 78 -219 80 -300 4 l-27 -27 -33 30 c-17 17 -45 36 -60 42 -41 17 -116 14
-162 -7z"/>
<path d="M2207 1624 c-4 -4 -7 -133 -7 -286 l0 -278 95 0 95 0 -2 283 -3 282
-85 3 c-47 1 -89 0 -93 -4z"/>
<path d="M4427 1624 c-4 -4 -7 -94 -7 -199 0 -220 10 -272 62 -322 42 -40 80
-54 144 -54 59 0 110 18 139 51 l20 22 5 -28 5 -29 93 -3 92 -3 -2 283 -3 283
-92 3 -91 3 -4 -173 c-3 -189 -11 -222 -60 -246 -35 -17 -75 -6 -96 26 -14 21
-18 60 -22 207 l-5 180 -85 3 c-47 1 -89 0 -93 -4z"/>
</g>
</svg>
